<svg width="18" height="17" viewBox="0 0 18 17" fill="none" xmlns="http://www.w3.org/2000/svg">
<path fill-rule="evenodd" clip-rule="evenodd" d="M18.448 11.6559V10.7139C18.4484 10.6938 18.4442 10.6739 18.4357 10.6557C18.4272 10.6376 18.4147 10.6216 18.399 10.609C18.3834 10.5964 18.365 10.5876 18.3454 10.5833C18.3258 10.5789 18.3055 10.5791 18.286 10.5839L13.839 11.8689C13.815 11.8751 13.7934 11.8884 13.777 11.9069C13.4634 12.2528 13.1295 12.5797 12.777 12.8859C12.5043 13.1194 12.1571 13.2478 11.798 13.2479H10.188V11.6179H11.464C11.4967 11.618 11.5283 11.6063 11.553 11.5849L11.718 11.4329C11.788 11.3689 11.873 11.2899 11.973 11.1899C11.9919 11.1701 12.0113 11.1492 12.031 11.128C12.074 11.0818 12.1188 11.0338 12.164 10.9899C12.23 10.9259 12.295 10.8539 12.355 10.7829C12.455 10.6749 12.555 10.5629 12.655 10.4439C12.7264 10.3628 12.7932 10.2776 12.855 10.1889C12.927 10.1049 12.998 10.0099 13.064 9.9199C13.0854 9.88871 13.109 9.85612 13.1328 9.82321C13.1624 9.78227 13.1924 9.74082 13.219 9.7009C13.267 9.6289 13.315 9.5519 13.356 9.4799C13.4804 9.28481 13.5884 9.07978 13.679 8.8669C13.7174 8.78525 13.7484 8.6976 13.7781 8.61374C13.7848 8.5949 13.7914 8.57625 13.798 8.5579C13.8339 8.4551 13.8636 8.35025 13.887 8.2439C13.9398 7.99792 13.9539 7.74524 13.929 7.4949C13.9253 7.41853 13.9153 7.3426 13.899 7.2679V7.2559C13.8922 7.20129 13.8805 7.1474 13.864 7.0949C13.8068 6.84565 13.7247 6.60276 13.619 6.3699C13.583 6.2819 13.541 6.1919 13.5 6.1089C13.404 5.9299 13.303 5.7519 13.189 5.5789C13.1632 5.5355 13.1346 5.49328 13.1066 5.45175C13.09 5.42726 13.0736 5.40301 13.058 5.3789C12.9905 5.27092 12.9104 5.16608 12.8327 5.0644C12.8126 5.03802 12.7926 5.01186 12.773 4.9859C12.7173 4.91324 12.6551 4.83878 12.5937 4.76531C12.5757 4.74373 12.5577 4.72224 12.54 4.7009C12.462 4.6069 12.385 4.5169 12.307 4.4279C12.028 4.1129 11.735 3.8269 11.474 3.5839C11.426 3.5359 11.373 3.4879 11.319 3.4409C11.116 3.2559 10.932 3.0959 10.777 2.9709C10.7374 2.93923 10.7006 2.90784 10.6659 2.8782C10.6348 2.85168 10.6053 2.82657 10.577 2.8039L10.398 2.6689C10.3862 2.66019 10.373 2.65343 10.359 2.6489L10.188 2.6009V1.1829C10.188 0.962072 10.1011 0.750115 9.946 0.592905C9.86993 0.515164 9.77907 0.453437 9.67877 0.411359C9.57847 0.369282 9.47077 0.347706 9.362 0.347904C9.14222 0.347638 8.9313 0.434554 8.77551 0.58959C8.61973 0.744625 8.5318 0.955121 8.531 1.1749V2.1299L8.445 2.1059L8.212 2.0399L8 1.9809H7.994L6.387 1.5459C6.37107 1.54167 6.35425 1.54221 6.33862 1.54747C6.323 1.55273 6.30927 1.56247 6.29914 1.57548C6.28901 1.58848 6.28294 1.60418 6.28167 1.62061C6.2804 1.63705 6.28399 1.6535 6.292 1.6679L6.549 2.1429C6.56324 2.1785 6.58135 2.21409 6.59998 2.25072C6.61277 2.27585 6.6258 2.30146 6.638 2.3279C6.68 2.4119 6.727 2.5109 6.763 2.5889C6.799 2.6669 6.835 2.7439 6.877 2.8279C6.8984 2.87617 6.92034 2.92512 6.94266 2.97493C7.0059 3.11602 7.07223 3.264 7.138 3.4229L7.14531 3.4403C7.20286 3.57744 7.26015 3.71395 7.311 3.8569C7.456 4.2309 7.592 4.6299 7.711 5.0399C7.74083 5.13292 7.7646 5.22242 7.78877 5.31339C7.79863 5.35053 7.80857 5.38792 7.819 5.4259L7.836 5.4979C7.884 5.6889 7.926 5.8779 7.956 6.0689C7.98 6.1989 8.003 6.3239 8.015 6.4499C8.02945 6.5647 8.04004 6.68531 8.04986 6.79722C8.05227 6.82471 8.05464 6.85168 8.057 6.8779C8.069 7.0109 8.075 7.1469 8.075 7.2779C8.07826 7.6 8.0447 7.92142 7.975 8.2359C7.97011 8.25383 7.96523 8.27204 7.96029 8.29045C7.94098 8.3624 7.92089 8.43723 7.897 8.5089C7.87404 8.59002 7.84406 8.67173 7.81287 8.75671C7.80331 8.78277 7.79363 8.80914 7.784 8.8359C7.76 8.9049 7.736 8.9709 7.706 9.0359C7.55313 9.39539 7.37813 9.74506 7.182 10.0829C6.903 10.5769 6.625 11.0109 6.425 11.2899C6.41542 11.3041 6.40609 11.3178 6.39702 11.3311C6.38051 11.3553 6.36484 11.3783 6.35 11.4009C6.33626 11.4209 6.32818 11.4442 6.32663 11.4683C6.32507 11.4925 6.33011 11.5167 6.34119 11.5382C6.35227 11.5598 6.36898 11.5779 6.38955 11.5907C6.41012 11.6035 6.43378 11.6105 6.458 11.6109H8.535V13.2519H6.435C6.15627 13.252 5.88306 13.1742 5.64626 13.0271C5.40946 12.8801 5.21851 12.6698 5.095 12.4199C4.9661 12.1688 4.91327 11.8856 4.943 11.6049C4.94522 11.5851 4.94334 11.5651 4.93749 11.5461C4.93164 11.5271 4.92194 11.5095 4.909 11.4944C4.89605 11.4793 4.88014 11.467 4.86225 11.4583C4.84436 11.4497 4.82487 11.4447 4.805 11.4439H0.558003C0.52326 11.4439 0.489938 11.4577 0.465371 11.4823C0.440804 11.5068 0.427002 11.5402 0.427002 11.5749V11.6619C0.426469 12.9597 0.940836 14.2048 1.85723 15.1238C2.77362 16.0428 4.01718 16.5607 5.315 16.5639H12.933C14.361 16.5639 15.1719 15.2625 15.9688 13.9834C16.191 13.627 16.412 13.2722 16.645 12.9479C17.124 12.434 17.7126 12.0344 18.367 11.7789C18.391 11.7684 18.4114 11.7513 18.4258 11.7294C18.4401 11.7076 18.4479 11.682 18.448 11.6559ZM1.56202 9.50899L1.49902 9.60899C1.48524 9.62886 1.47727 9.65217 1.47601 9.67631C1.47475 9.70045 1.48024 9.72447 1.49187 9.74566C1.50351 9.76685 1.52082 9.78438 1.54187 9.79627C1.56292 9.80817 1.58686 9.81396 1.61102 9.81299H5.52102C5.54233 9.81315 5.56335 9.80803 5.58219 9.79808C5.60104 9.78813 5.61713 9.77367 5.62902 9.75599C5.68002 9.67799 5.72802 9.59699 5.77202 9.51399C6.09255 9.00451 6.34313 8.45425 6.51702 7.87799C6.77302 6.77199 6.22502 5.00199 5.59002 3.57799C5.58043 3.55662 5.56524 3.53824 5.54607 3.52479C5.52689 3.51134 5.50444 3.50332 5.48108 3.50158C5.45773 3.49984 5.43433 3.50444 5.41337 3.5149C5.39242 3.52536 5.37467 3.54128 5.36202 3.56099L1.56202 9.50899Z" fill="#5CFFE4"/>
</svg>
